<svg width="48" height="48" viewBox="0 0 48 48" fill="none" xmlns="http://www.w3.org/2000/svg">
  <path d="M24 2c5.3 0 9.6 3.6 11.6 6.8 2.3 3.8 3.4 8.4 3.4 12.2 0 9.8-9.4 21-14 24.9a2 2 0 0 1-2.5 0C17.9 42 8 32.4 8 21c0-3.8 1-8.4 3.4-12.2C13.4 5.6 17.7 2 23 2h1Z" fill="#f97316"/>
  <path d="M16.5 9.5 14 4.2a1 1 0 0 0-1.7-.1C9.4 7 8 11 8 15c0 1.2.1 2.3.3 3.4a15 15 0 0 1 8.2-8.9Zm15 0L34 4.2a1 1 0 0 1 1.7-.1C38.6 7 40 11 40 15c0 1.2-.1 2.3-.3 3.4a15 15 0 0 0-8.2-8.9Z" fill="#fb923c"/>
  <circle cx="18.5" cy="20" r="2.5" fill="#1f2937"/>
  <circle cx="29.5" cy="20" r="2.5" fill="#1f2937"/>
  <path d="M24 23c1.9 0 3.5 1.4 3.5 3.1 0 .9-.6 1.9-1.4 2.4-.9.6-2 .9-3.1.9s-2.2-.3-3-.9a2.9 2.9 0 0 1-1.5-2.4c0-1.7 1.6-3.1 3.5-3.1Z" fill="#fff"/>
  <path d="M20.5 28.5c1 .7 2.1 1.1 3.5 1.1s2.6-.4 3.6-1.1" stroke="#1f2937" stroke-width="1.6" stroke-linecap="round"/>
</svg>
